<?xml version="1.0" standalone="no"?>
<!DOCTYPE svg PUBLIC "-//W3C//DTD SVG 20010904//EN"
 "http://www.w3.org/TR/2001/REC-SVG-20010904/DTD/svg10.dtd">
<svg version="1.0" xmlns="http://www.w3.org/2000/svg"
 width="864.000000pt" height="864.000000pt" viewBox="0 0 864.000000 864.000000"
 preserveAspectRatio="xMidYMid meet">
<metadata>
Created by potrace 1.11, written by Peter Selinger 2001-2013
</metadata>
<g transform="translate(0.000000,864.000000) scale(0.100000,-0.100000)"
fill="#000000" stroke="none">
<path d="M6438 8235 c-1 -1 -38 -6 -81 -10 -43 -3 -88 -8 -100 -10 -12 -2 -44
-7 -72 -11 -27 -4 -57 -8 -65 -9 -8 -2 -31 -5 -50 -8 -19 -3 -53 -9 -75 -13
-22 -4 -46 -7 -52 -7 -7 0 -13 -4 -13 -9 0 -5 -4 -7 -10 -3 -8 5 -321 -66
-360 -82 -8 -3 -19 -7 -25 -8 -30 -8 -217 -70 -255 -85 -208 -83 -274 -112
-410 -180 -85 -42 -179 -91 -208 -109 -29 -17 -57 -31 -62 -31 -6 0 -10 -3
-10 -8 0 -7 -30 -25 -62 -38 -10 -3 -18 -10 -18 -15 0 -5 -5 -9 -11 -9 -6 0
-25 -10 -42 -22 -17 -13 -40 -27 -49 -33 -32 -18 -133 -88 -143 -100 -5 -6
-27 -21 -47 -34 -21 -12 -38 -27 -38 -32 0 -5 -5 -9 -11 -9 -6 0 -17 -6 -24
-12 -8 -7 -31 -26 -52 -43 -191 -152 -401 -356 -563 -546 -30 -35 -57 -66 -60
-69 -4 -3 -30 -36 -58 -75 -28 -38 -55 -74 -60 -80 -13 -16 -114 -173 -158
-245 -21 -36 -43 -70 -49 -76 -5 -7 -28 -42 -50 -78 -22 -36 -43 -66 -47 -66
-5 0 -8 -6 -8 -12 0 -12 -109 -187 -145 -233 -8 -10 -15 -23 -15 -28 0 -5 -6
-14 -12 -22 -7 -7 -40 -57 -73 -110 -33 -53 -87 -138 -121 -190 -34 -51 -64
-99 -67 -107 -6 -11 -237 -374 -267 -418 -36 -53 -80 -122 -80 -127 0 -2 -11
-19 -25 -37 -14 -18 -25 -37 -25 -42 0 -5 -11 -22 -25 -38 -14 -16 -25 -35
-25 -42 0 -7 -4 -14 -8 -16 -7 -3 -423 -651 -431 -673 -2 -5 -7 -12 -10 -15
-4 -3 -69 -103 -145 -224 -155 -245 -181 -286 -196 -303 -5 -7 -10 -15 -10
-18 0 -5 -244 -389 -298 -469 -15 -21 -31 -46 -37 -56 -5 -10 -35 -57 -65
-104 -30 -48 -66 -105 -80 -127 -14 -22 -84 -133 -157 -247 -73 -114 -148
-232 -167 -262 -19 -30 -40 -60 -46 -67 -5 -7 -10 -15 -10 -19 0 -4 -11 -22
-25 -40 -14 -18 -25 -35 -25 -39 0 -3 -16 -29 -35 -58 -20 -28 -40 -59 -45
-67 -5 -8 -71 -112 -146 -230 -75 -118 -156 -245 -180 -281 -44 -68 -46 -78
-29 -159 3 -14 8 -41 11 -60 2 -19 9 -55 14 -80 5 -25 11 -63 14 -85 3 -22 7
-47 10 -55 3 -8 7 -31 10 -50 3 -19 7 -48 10 -65 3 -16 8 -43 11 -60 3 -16 7
-41 10 -55 3 -13 7 -40 10 -60 3 -20 8 -47 11 -60 3 -14 6 -42 8 -63 2 -21 6
-41 10 -44 3 -4 6 -15 6 -26 0 -16 3 -17 15 -7 8 7 15 18 15 25 0 8 4 15 8 17
7 3 109 160 156 241 10 18 21 34 25 37 3 3 12 17 20 32 8 16 18 28 23 28 4 0
8 9 8 20 0 11 4 20 8 20 5 0 21 21 36 48 34 61 50 86 56 92 8 7 144 222 149
234 2 6 16 29 31 51 15 22 45 67 65 100 21 33 48 76 61 95 116 182 251 398
257 413 3 9 11 17 17 17 5 0 10 4 10 10 0 8 228 373 445 710 72 114 140 220
150 238 5 9 20 31 32 49 13 17 23 36 23 41 0 6 4 12 8 14 4 2 26 32 47 68 22
36 50 81 62 100 34 51 40 60 71 110 16 25 65 103 110 173 45 71 82 130 82 133
0 3 6 11 13 19 6 7 24 33 39 59 27 45 53 62 108 72 14 3 34 8 45 11 25 8 26 9
105 28 36 8 72 18 80 22 8 3 24 8 35 10 38 8 50 11 50 13 0 1 7 3 15 5 8 2 42
11 75 20 33 9 112 29 175 46 63 16 122 33 130 36 19 8 17 7 60 17 19 4 80 21
136 36 55 16 111 31 125 33 13 2 31 7 39 10 8 4 51 16 95 27 102 27 99 26 170
46 33 9 67 18 75 19 8 2 15 4 15 5 0 1 7 3 15 5 9 1 48 12 88 23 39 11 72 18
72 15 0 -3 6 0 14 6 8 6 18 11 22 10 5 -1 16 1 24 4 8 4 33 11 55 16 22 5 101
26 175 46 74 21 141 38 148 38 6 0 12 3 12 7 0 3 8 6 18 6 9 1 71 16 137 34
264 72 371 101 385 104 8 2 58 16 110 30 52 15 102 29 110 30 8 2 35 9 60 16
25 7 52 13 60 15 60 12 105 30 129 53 16 15 73 97 126 182 140 222 153 244
165 257 5 7 10 15 10 19 0 4 7 15 16 25 9 10 22 35 29 55 16 49 -3 95 -47 112
-33 12 -35 12 -165 -23 -54 -15 -105 -29 -113 -31 -8 -2 -49 -13 -90 -24 -41
-12 -115 -32 -165 -45 -49 -13 -117 -31 -150 -40 -33 -9 -67 -18 -75 -20 -8
-3 -49 -14 -90 -25 -127 -35 -225 -61 -235 -64 -5 -1 -16 -5 -22 -9 -7 -5 -13
-6 -13 -4 0 3 -39 -6 -87 -20 -49 -13 -99 -26 -112 -29 -14 -3 -28 -7 -33 -10
-4 -3 -17 -7 -28 -10 -11 -2 -30 -7 -42 -10 -13 -3 -30 -7 -38 -9 -8 -1 -22
-5 -30 -8 -8 -4 -49 -15 -90 -26 -41 -10 -100 -26 -131 -35 -31 -9 -65 -18
-75 -21 -11 -2 -34 -8 -51 -14 -18 -5 -33 -7 -33 -4 0 3 -7 -1 -17 -8 -9 -8
-19 -13 -22 -12 -3 1 -24 -2 -46 -8 -22 -6 -47 -13 -55 -14 -8 -2 -40 -10 -70
-19 -152 -42 -357 -97 -376 -101 -12 -3 -51 -14 -85 -24 -53 -16 -187 -52
-249 -66 -8 -2 -48 -13 -87 -24 -40 -12 -78 -21 -83 -21 -6 0 3 20 20 44 16
25 30 49 30 54 0 6 4 12 8 14 5 2 28 35 51 73 69 115 279 449 289 461 6 6 18
26 27 45 10 19 21 36 25 39 4 3 15 19 24 35 9 17 24 42 34 56 9 15 28 45 41
68 14 22 29 41 33 41 5 0 7 4 3 10 -4 7 55 31 75 29 3 0 17 4 33 10 15 6 40
13 55 16 38 8 57 13 57 15 0 1 7 3 15 5 8 2 67 17 130 34 63 18 122 33 130 36
8 2 42 11 75 20 72 19 73 20 155 40 36 9 72 19 80 22 20 8 31 11 60 17 14 3
97 26 185 50 88 24 176 47 195 51 19 4 40 10 45 13 6 4 17 8 25 9 12 2 323 84
410 109 8 2 40 10 70 18 43 11 446 121 520 141 30 9 95 26 113 30 9 2 21 6 25
9 5 3 19 7 33 9 18 4 248 64 349 92 130 36 167 46 180 49 8 2 35 10 60 17 25
7 50 13 55 13 10 1 113 144 114 158 1 4 21 37 46 74 25 36 45 67 45 69 0 3 36
62 81 131 44 70 82 139 83 153 6 48 -26 87 -77 97 -11 2 -64 -8 -116 -22 -53
-14 -130 -35 -171 -46 -41 -11 -79 -21 -85 -23 -5 -1 -17 -5 -25 -8 -8 -3 -60
-18 -115 -32 -55 -15 -116 -31 -135 -36 -19 -5 -43 -12 -53 -14 -10 -2 -27 -7
-37 -10 -10 -3 -27 -8 -37 -10 -10 -2 -43 -11 -73 -20 -30 -9 -62 -18 -70 -20
-68 -17 -155 -40 -265 -70 -71 -20 -137 -37 -145 -39 -8 -2 -58 -16 -110 -30
-52 -15 -103 -29 -112 -32 -44 -11 -59 -15 -163 -44 -60 -17 -119 -32 -130
-34 -11 -3 -20 -5 -20 -6 0 -2 -4 -3 -95 -25 -36 -8 -72 -18 -80 -22 -19 -8
-29 -11 -61 -17 -15 -3 -64 -17 -110 -30 -46 -13 -87 -22 -91 -20 -5 3 -8 0
-8 -7 0 -7 -3 -10 -6 -7 -3 4 -20 2 -37 -4 -18 -5 -39 -11 -47 -13 -8 -2 -15
-4 -15 -5 0 -1 -7 -3 -15 -5 -8 -1 -76 -19 -150 -40 -74 -20 -142 -38 -150
-40 -8 -3 -49 -13 -90 -25 -115 -31 -130 -33 -124 -15 4 8 10 15 15 15 5 0 9
5 9 11 0 9 34 59 65 96 6 6 23 30 39 52 17 23 33 41 38 41 4 0 8 5 8 10 0 15
54 74 215 235 142 142 199 194 315 285 36 29 75 60 88 71 12 10 22 17 22 14 0
-3 12 6 28 19 34 31 210 146 221 146 5 0 11 4 13 8 4 11 143 92 156 92 6 0 12
3 14 8 4 9 229 122 245 122 6 0 18 6 25 13 7 6 38 21 68 31 30 10 60 22 65 27
8 6 310 112 310 109 0 -1 7 1 15 4 36 12 106 29 113 28 4 -1 16 2 25 7 15 8
31 12 102 25 8 2 33 7 55 11 72 14 80 15 115 21 19 3 37 7 40 9 3 2 37 6 75
10 39 4 73 9 77 12 14 8 202 17 333 16 118 -1 171 -4 290 -18 77 -9 164 -24
185 -32 18 -8 16 -7 65 -18 46 -10 53 -12 60 -15 3 -1 8 -3 13 -5 4 -1 20 -7
35 -13 16 -7 30 -12 33 -12 14 0 222 -107 234 -121 3 -3 25 -19 50 -36 55 -38
154 -140 202 -208 39 -54 85 -141 117 -220 17 -43 25 -68 47 -150 12 -45 34
-174 40 -235 8 -83 8 -315 -1 -400 -3 -30 -6 -62 -6 -70 -1 -18 -18 -143 -25
-185 -17 -103 -28 -159 -45 -230 -11 -44 -22 -87 -24 -95 -2 -8 -4 -16 -5 -17
-2 -2 -3 -6 -4 -10 -2 -5 -8 -28 -15 -53 -7 -25 -12 -45 -11 -45 2 0 -7 -20
-20 -45 -13 -25 -23 -47 -23 -50 0 -3 -3 -15 -8 -28 -5 -13 -9 -25 -9 -26 0
-9 -105 -217 -131 -261 -16 -27 -33 -57 -36 -65 -4 -8 -9 -17 -13 -20 -4 -3
-25 -33 -48 -67 -100 -148 -275 -340 -437 -480 -82 -71 -243 -193 -254 -193
-5 0 -11 -4 -13 -9 -1 -5 -60 -44 -129 -88 -69 -43 -134 -84 -145 -90 -10 -7
-35 -20 -54 -30 -19 -9 -37 -20 -40 -23 -8 -10 -337 -173 -450 -222 -295 -130
-624 -253 -731 -273 -14 -3 -44 -11 -67 -19 -23 -8 -42 -13 -42 -10 0 2 -8 0
-18 -5 -11 -6 -30 -12 -43 -15 -13 -3 -39 -9 -57 -15 -18 -5 -36 -10 -40 -11
-19 -3 -59 -12 -72 -17 -8 -3 -19 -7 -25 -8 -5 -1 -55 -15 -110 -30 -55 -15
-107 -29 -115 -30 -8 -2 -15 -4 -15 -5 0 -1 -7 -3 -15 -5 -19 -4 -134 -35
-370 -100 -52 -14 -102 -28 -110 -30 -8 -1 -60 -15 -115 -30 -55 -15 -107 -28
-115 -30 -8 -2 -15 -4 -15 -5 0 -1 -7 -3 -15 -5 -8 -1 -67 -17 -130 -34 -63
-18 -149 -41 -190 -52 -90 -24 -74 -20 -235 -64 -170 -47 -167 -46 -190 -50
-11 -2 -85 -22 -165 -45 -80 -23 -155 -43 -167 -46 -12 -2 -35 -9 -50 -15 -16
-6 -29 -10 -30 -10 -2 1 -4 1 -5 0 -2 0 -10 -2 -18 -4 -8 -1 -93 -24 -189 -50
-95 -26 -178 -48 -185 -49 -58 -12 -127 -41 -140 -59 -23 -31 -92 -137 -151
-232 -27 -44 -53 -81 -57 -83 -4 -2 -8 -7 -8 -12 0 -4 -28 -52 -62 -106 -34
-54 -62 -110 -63 -124 -3 -48 53 -102 100 -94 21 3 166 41 295 75 41 12 82 22
90 24 8 2 16 4 18 5 2 3 5 3 47 14 17 5 100 27 185 51 153 42 205 56 225 60 6
2 78 21 160 43 184 50 305 83 325 87 8 2 58 16 110 31 52 14 100 27 105 28 6
2 30 8 55 15 25 7 54 15 65 18 30 6 35 8 95 25 50 15 141 40 325 89 39 10 138
36 220 59 83 22 157 42 165 44 8 1 22 6 30 9 16 6 163 45 195 52 22 5 77 18
85 20 3 1 12 4 20 8 12 5 224 62 340 92 12 4 145 39 220 60 200 54 253 72 460
155 132 53 154 61 160 63 3 0 41 17 85 37 44 21 103 48 130 60 129 58 462 230
495 254 8 7 35 22 60 35 25 13 52 29 60 36 8 6 54 36 103 65 48 29 87 56 87
61 0 4 10 11 22 15 12 3 26 10 32 15 27 22 188 139 192 139 2 0 12 8 22 18 10
9 34 29 53 44 19 14 44 35 55 45 12 10 46 38 75 63 99 82 353 344 442 455 108
134 225 304 260 375 6 14 14 27 18 30 21 18 186 371 205 440 2 8 19 66 39 127
19 62 37 125 40 140 8 39 13 58 15 58 1 0 3 9 5 20 1 11 8 52 15 90 7 39 14
84 16 100 2 17 6 44 9 60 21 121 30 260 30 470 0 232 -9 341 -41 490 -9 39
-17 77 -19 85 -8 38 -27 105 -37 129 -6 14 -12 28 -13 31 -21 85 -107 260
-178 364 -15 23 -39 59 -54 81 -44 68 -253 267 -348 332 -50 33 -125 79 -167
102 -84 45 -238 112 -238 104 0 -3 -6 -1 -12 5 -35 27 -371 107 -493 117 -27
3 -61 7 -75 11 -25 6 -515 15 -522 9z"/>
</g>
</svg>
