<?xml version="1.0" encoding="utf-8"?>
<!-- Generator: Adobe Illustrator 23.0.1, SVG Export Plug-In . SVG Version: 6.00 Build 0)  -->
<svg version="1.1" id="Layer_1" xmlns="http://www.w3.org/2000/svg" xmlns:xlink="http://www.w3.org/1999/xlink" x="0px" y="0px"
	 viewBox="0 0 19 19" style="enable-background:new 0 0 19 19;" xml:space="preserve">
<style type="text/css">
	.st0{fill:#5FADDC;}
</style>
<g>
	<path class="st0" d="M5.5,15.8L15.8,5.5l-2.3-2.3L3.2,13.5L5.5,15.8z M9,13.7l-3.1,3.1L5.7,17l-5,2c-0.4,0.2-0.8-0.2-0.6-0.6l2-5
		l0.1-0.2L5.3,10L0.1,4.9C0,4.7,0,4.3,0.1,4.1l4-4C4.3,0,4.7,0,4.9,0.1L10,5.3l4.9-4.9c0.6-0.6,1.5-0.6,2.1,0L18.6,2
		c0.6,0.6,0.6,1.5,0,2.1L13.7,9l5.1,5.1c0.2,0.2,0.2,0.5,0,0.7l-4,4c-0.2,0.2-0.5,0.2-0.7,0L9,13.7z M9.7,13l4.8,4.8l3.3-3.3
		l-1.3-1.3l-0.6,0.6c-0.5,0.5-1.2-0.2-0.7-0.7l0.6-0.6l-1.3-1.3l-1.6,1.6c-0.5,0.5-1.2-0.2-0.7-0.7l1.6-1.6L13,9.7L9.7,13L9.7,13z
		 M6,9.3L9.3,6L8.5,5.2L7.9,5.9C7.4,6.3,6.7,5.6,7.1,5.1l0.6-0.6L6.5,3.2L4.9,4.9C4.4,5.3,3.7,4.6,4.1,4.1l1.6-1.6L4.5,1.2L1.2,4.5
		L6,9.3L6,9.3z M4.6,16.3l-1.9-1.9l-1.3,3.2L4.6,16.3L4.6,16.3z M14.2,2.5l2.3,2.3l1.4-1.4c0.2-0.2,0.2-0.5,0-0.7l-1.6-1.6
		c-0.2-0.2-0.5-0.2-0.7,0L14.2,2.5L14.2,2.5z"/>
</g>
</svg>
