<?xml version="1.0" encoding="utf-8"?>
<!-- Generator: Adobe Illustrator 16.0.0, SVG Export Plug-In . SVG Version: 6.00 Build 0)  -->
<!DOCTYPE svg PUBLIC "-//W3C//DTD SVG 1.1//EN" "http://www.w3.org/Graphics/SVG/1.1/DTD/svg11.dtd">
<svg version="1.1" id="Layer_1" xmlns="http://www.w3.org/2000/svg" xmlns:xlink="http://www.w3.org/1999/xlink" x="0px" y="0px"
	 width="26.911px" height="24.402px" viewBox="0 0 26.911 24.402" enable-background="new 0 0 26.911 24.402" xml:space="preserve">
<path fill="#FFFFFF" d="M0.477,24.402L6.926,14.24l9.664-2.603c0.066-0.027,0.125-0.062,0.164-0.134l0.998-1.569
	c0.062-0.093,0.059-0.227-0.014-0.321c-0.076-0.089-0.191-0.133-0.303-0.098l-9.064,2.456l1.875-2.982l9.676-2.607
	c0.072-0.013,0.127-0.062,0.168-0.12l1.002-1.586c0.062-0.089,0.062-0.229-0.01-0.317c-0.076-0.093-0.191-0.143-0.303-0.111
	l-9.084,2.465l0.15-0.223c0.023-0.045,2.547-3.89,7.734-4.586c0.008,0,0.484-0.084,1.152-0.084c1.035,0,2.457,0.192,3.379,1.118
	c0.914,0.914,1.191,2.434,0.816,4.529c-0.598,3.32-2.938,5.482-7.82,7.202l-0.029,0.01L7.356,17.31
	c-0.068,0.023-0.129,0.068-0.172,0.125l-0.988,1.561c-0.062,0.102-0.062,0.229,0.014,0.32c0.066,0.094,0.191,0.143,0.299,0.117
	l11.027-2.979c5.324-1.889,8.506-4.902,9.186-8.672c0.486-2.714,0.035-4.782-1.32-6.137C24.036,0.285,22.102,0,20.721,0
	c-0.846,0-1.426,0.107-1.426,0.107c-6.01,0.806-8.865,5.209-8.986,5.397L0,21.669l0,0L0.477,24.402z"/>
</svg>
